# 3ds Max Wavefront OBJ Exporter v0.97b - (c)2007 guruware
# File Created: 19.05.2017 10:49:24

mtllib fx_placeholder_cylindre conique.mtl

#
# object Cylinder002
#

v  18.6836 0.0000 -0.0000
v  17.5568 0.0000 -6.3902
v  57.5494 157.0000 -20.9463
v  61.2428 157.0000 -0.0000
v  14.3125 0.0000 -12.0096
v  46.9147 157.0000 -39.3661
v  9.3418 0.0000 -16.1805
v  30.6214 157.0000 -53.0378
v  3.2444 0.0000 -18.3997
v  10.6347 157.0000 -60.3124
v  -3.2444 0.0000 -18.3997
v  -10.6347 157.0000 -60.3124
v  -9.3418 0.0000 -16.1805
v  -30.6214 157.0000 -53.0378
v  -14.3125 0.0000 -12.0096
v  -46.9147 157.0000 -39.3661
v  -17.5568 0.0000 -6.3902
v  -57.5494 157.0000 -20.9463
v  -18.6836 0.0000 -0.0000
v  -61.2428 157.0000 -0.0000
v  -17.5568 0.0000 6.3902
v  -57.5494 157.0000 20.9463
v  -14.3125 0.0000 12.0096
v  -46.9147 157.0000 39.3661
v  -9.3418 0.0000 16.1805
v  -30.6214 157.0000 53.0378
v  -3.2444 0.0000 18.3997
v  -10.6347 157.0000 60.3124
v  3.2444 0.0000 18.3997
v  10.6347 157.0000 60.3124
v  9.3418 0.0000 16.1805
v  30.6214 157.0000 53.0378
v  14.3125 0.0000 12.0096
v  46.9147 157.0000 39.3661
v  17.5568 0.0000 6.3902
v  57.5494 157.0000 20.9463
# 36 vertices

vn 0.9401 -0.3410 0.0000
vn 0.8834 -0.3410 -0.3215
vn 0.7201 -0.3410 -0.6043
vn 0.4700 -0.3410 -0.8141
vn 0.1632 -0.3410 -0.9258
vn -0.1632 -0.3410 -0.9258
vn -0.4700 -0.3410 -0.8141
vn -0.7201 -0.3410 -0.6043
vn -0.8834 -0.3410 -0.3215
vn -0.9401 -0.3410 -0.0000
vn -0.8834 -0.3410 0.3215
vn -0.7201 -0.3410 0.6043
vn -0.4700 -0.3410 0.8141
vn -0.1632 -0.3410 0.9258
vn 0.1632 -0.3410 0.9258
vn 0.4700 -0.3410 0.8141
vn 0.7201 -0.3410 0.6043
vn 0.8834 -0.3410 0.3215
# 18 vertex normals

vt 0.9426 0.0005 -0.0037
vt 0.9979 0.0005 -0.0028
vt 0.9979 0.9995 -0.0028
vt 0.9426 0.9995 -0.0037
vt 0.0005 0.0005 -0.0028
vt 0.0559 0.0005 -0.0005
vt 0.0559 0.9995 -0.0005
vt 0.0005 0.9995 -0.0028
vt 0.1112 0.0005 0.0021
vt 0.1112 0.9995 0.0021
vt 0.1665 0.0005 0.0037
vt 0.1665 0.9995 0.0037
vt 0.2219 0.0005 0.0037
vt 0.2219 0.9995 0.0037
vt 0.2774 0.0005 0.0021
vt 0.2774 0.9995 0.0021
vt 0.3329 0.0005 -0.0005
vt 0.3329 0.9995 -0.0005
vt 0.3884 0.0005 -0.0028
vt 0.3884 0.9995 -0.0028
vt 0.4439 0.0005 -0.0037
vt 0.4439 0.9995 -0.0037
vt 0.4994 0.0005 -0.0028
vt 0.4994 0.9995 -0.0028
vt 0.5550 0.0005 -0.0005
vt 0.5550 0.9995 -0.0005
vt 0.6104 0.0005 0.0021
vt 0.6104 0.9995 0.0021
vt 0.6658 0.0005 0.0037
vt 0.6658 0.9995 0.0037
vt 0.7212 0.0005 0.0037
vt 0.7212 0.9995 0.0037
vt 0.7766 0.0005 0.0021
vt 0.7766 0.9995 0.0021
vt 0.8320 0.0005 -0.0005
vt 0.8320 0.9995 -0.0005
vt 0.8874 0.0005 -0.0028
vt 0.8874 0.9995 -0.0028
# 38 texture coords

g Cylinder002
usemtl wire_087225087
s 8
f 1/1/1 2/2/2 3/3/2 4/4/1 
f 2/5/2 5/6/3 6/7/3 3/8/2 
f 5/6/3 7/9/4 8/10/4 6/7/3 
f 7/9/4 9/11/5 10/12/5 8/10/4 
f 9/11/5 11/13/6 12/14/6 10/12/5 
f 11/13/6 13/15/7 14/16/7 12/14/6 
f 13/15/7 15/17/8 16/18/8 14/16/7 
f 15/17/8 17/19/9 18/20/9 16/18/8 
f 17/19/9 19/21/10 20/22/10 18/20/9 
f 19/21/10 21/23/11 22/24/11 20/22/10 
f 21/23/11 23/25/12 24/26/12 22/24/11 
f 23/25/12 25/27/13 26/28/13 24/26/12 
f 25/27/13 27/29/14 28/30/14 26/28/13 
f 27/29/14 29/31/15 30/32/15 28/30/14 
f 29/31/15 31/33/16 32/34/16 30/32/15 
f 31/33/16 33/35/17 34/36/17 32/34/16 
f 33/35/17 35/37/18 36/38/18 34/36/17 
f 35/37/18 1/1/1 4/4/1 36/38/18 
# 18 polygons

